#!OML:ASF E:\Style4\Style4.ASF
:FULLY-SPECIFIED
:DEGREES
3187
root -0.432234 17.8443 -1.08805 3.28243 -0.993712 5.73153
lowerback 11.4986 3.72651 1.48364
upperback 6.71633 5.0522 -1.61898
thorax 0.871224 2.6085 -3.02774
lowerneck 1.66582 -3.2962 -3.57
upperneck 1.35813 -4.45209 1.54298
head 0.257626 -2.23864 1.07043
rclavicle -3.22031e-014 3.02153e-014
rhumerus 36.6071 -4.07924 -33.4497
rradius 81.0333
rwrist -6.37849
rhand -1.06083 10.2782
rfingers 7.12502
rthumb 24.5739 -18.1646
lclavicle -3.22031e-014 3.02153e-014
lhumerus 47.8325 18.6231 23.9839
lradius 84.1615
lwrist 11.4418
lhand -2.2258 25.6796
lfingers 7.12502
lthumb 23.4568 54.2698
rfemur -20.077 -1.34214 14.2583
rtibia 35.9134
rfoot -17.4461 -15.6809
rtoes -11.9874
lfemur -19.0338 1.1417 -22.4519
ltibia 33.3013
lfoot -12.7025 9.92084
ltoes -21.6589
3188
root -0.410553 17.8507 -1.08609 3.34947 -1.33504 5.60294
lowerback 11.4014 3.62957 1.5048
upperback 6.65091 4.92443 -1.58718
thorax 0.84536 2.54261 -2.99005
lowerneck 1.40269 -3.12561 -3.45571
upperneck 1.5826 -4.21305 1.37171
head 0.357079 -2.11958 0.990963
rclavicle 5.56597e-015 -3.18055e-014
rhumerus 36.672 -3.87224 -33.3505
rradius 81.4976
rwrist -6.41595
rhand -0.926443 10.1497
rfingers 7.12502
rthumb 24.7027 -18.2756
lclavicle 5.56597e-015 -3.18055e-014
lhumerus 48.0052 18.4752 24.2222
lradius 83.7615
lwrist 11.1788
lhand -2.08797 25.6495
lfingers 7.12502
lthumb 23.589 54.2227
rfemur -20.1125 -1.11737 14.3202
rtibia 35.6731
rfoot -17.2361 -15.6
rtoes -12.4006
lfemur -18.9567 1.19185 -22.3995
ltibia 33.1117
lfoot -12.7787 10.1412
ltoes -21.3554
3189
root -0.389444 17.8541 -1.08289 3.39177 -1.64963 5.40998
lowerback 11.4021 3.50511 1.45732
upperback 6.51877 4.75402 -1.45944
thorax 0.679452 2.44868 -2.82102
lowerneck 1.24219 -2.91687 -3.49846
upperneck 1.84656 -3.9288 1.28009
head 0.456418 -1.97944 0.96551
rclavicle 8.34896e-015 -4.77083e-015
rhumerus 36.7523 -3.46203 -33.1716
rradius 82.0051
rwrist -6.4457
rhand -0.956304 10.1555
rfingers 7.12502
rthumb 24.6741 -18.2737
lclavicle 8.34896e-015 -4.77083e-015
lhumerus 47.8677 18.2556 24.3752
lradius 83.4596
lwrist 10.9567
lhand -2.17072 25.7391
lfingers 7.12502
lthumb 23.5096 54.3225
rfemur -20.1189 -0.901973 14.4577
rtibia 35.4869
rfoot -17.1134 -15.5282
rtoes -12.5482
lfemur -18.8544 1.25631 -22.284
ltibia 32.9529
lfoot -12.927 10.4
ltoes -21.4234
3190
root -0.368234 17.8562 -1.08342 3.43493 -1.9585 5.34481
lowerback 11.4138 3.37279 1.27868
upperback 6.38758 4.56086 -1.38501
thorax 0.502628 2.34128 -2.63217
lowerneck 1.16582 -2.69126 -3.46775
upperneck 2.02116 -3.6237 1.16231
head 0.512008 -1.82836 0.922249
rclavicle 6.4605e-014 -2.94201e-014
rhumerus 36.8207 -3.06711 -32.9761
rradius 82.5341
rwrist -6.49477
rhand -1.086 10.1724
rfingers 7.12502
rthumb 24.5498 -18.2737
lclavicle 6.4605e-014 -2.94201e-014
lhumerus 47.612 18.0353 24.3914
lradius 83.1831
lwrist 10.7984
lhand -2.38501 25.7941
lfingers 7.12502
lthumb 23.3041 54.4037
rfemur -20.1632 -0.753476 14.4534
rtibia 35.3725
rfoot -17.0119 -15.4222
rtoes -12.7277
lfemur -18.7502 1.28784 -22.2993
ltibia 32.8014
lfoot -13.2852 10.5963
ltoes -20.4172
3191
root -0.346129 17.8547 -1.08683 3.4556 -2.30854 5.32048
lowerback 11.4545 3.27594 1.10985
upperback 6.30555 4.41536 -1.34832
thorax 0.370129 2.26036 -2.49181
lowerneck 0.986283 -2.50335 -3.35287
upperneck 2.15983 -3.36414 1.01193
head 0.572935 -1.69929 0.853795
rclavicle -1.27222e-014 1.19271e-014
rhumerus 36.9051 -2.86407 -32.7492
rradius 83.0127
rwrist -6.59396
rhand -1.14107 10.2428
rfingers 7.12502
rthumb 24.497 -18.2105
lclavicle -1.27222e-014 1.19271e-014
lhumerus 47.4798 17.8504 24.48
lradius 82.9277
lwrist 10.6033
lhand -2.54027 25.909
lfingers 7.12502
lthumb 23.1551 54.5374
rfemur -20.2609 -0.585197 14.3994
rtibia 35.3103
rfoot -16.8766 -15.3391
rtoes -12.9954
lfemur -18.6523 1.36157 -22.3642
ltibia 32.6709
lfoot -13.6957 10.7559
ltoes -19.3152
3192
root -0.323886 17.8514 -1.09047 3.51625 -2.61623 5.2977
lowerback 11.4521 3.1824 0.988698
upperback 6.24717 4.27895 -1.31945
thorax 0.291529 2.18658 -2.38272
lowerneck 0.669842 -2.32194 -3.24997
upperneck 2.35429 -3.10847 0.857166
head 0.674793 -1.57271 0.784879
rclavicle -1.15295e-014 7.95139e-015
rhumerus 36.9954 -2.80944 -32.5506
rradius 83.476
rwrist -6.6497
rhand -1.09555 10.2827
rfingers 7.12502
rthumb 24.5406 -18.1647
lclavicle -1.15295e-014 7.95139e-015
lhumerus 47.504 17.7251 24.6716
lradius 82.6633
lwrist 10.4124
lhand -2.66393 26.0995
lfingers 7.12502
lthumb 23.0365 54.7427
rfemur -20.4443 -0.458905 14.336
rtibia 35.3301
rfoot -16.9026 -15.1561
rtoes -12.6322
lfemur -18.649 1.41998 -22.432
ltibia 32.5716
lfoot -14.0744 10.9181
ltoes -18.5786
3193
root -0.302837 17.8468 -1.09208 3.51684 -2.92279 5.14107
lowerback 11.5005 3.08872 0.999716
upperback 6.17943 4.15541 -1.26088
thorax 0.184612 2.12173 -2.32113
lowerneck 0.531804 -2.14676 -3.19285
upperneck 2.52262 -2.86809 0.756678
head 0.741809 -1.45403 0.743399
rclavicle 1.14102e-013 -3.89618e-014
rhumerus 37.0359 -2.74214 -32.3331
rradius 83.9755
rwrist -6.75234
rhand -1.00043 10.2694
rfingers 7.12502
rthumb 24.6318 -18.1656
lclavicle 1.14102e-013 -3.89618e-014
lhumerus 47.5406 17.6011 24.9794
lradius 82.4612
lwrist 10.1173
lhand -2.567 26.302
lfingers 7.12502
lthumb 23.1295 54.9336
rfemur -20.552 -0.299317 14.4311
rtibia 35.3953
rfoot -16.905 -15.0439
rtoes -12.7403
lfemur -18.5953 1.39942 -22.3471
ltibia 32.545
lfoot -14.4415 11.1879
ltoes -18.1173
3194
root -0.28145 17.8387 -1.09499 3.52159 -3.28899 5.04551
lowerback 11.5441 3.00771 0.891538
upperback 6.09346 4.03674 -1.2101
thorax 0.05378 2.0563 -2.20171
lowerneck 0.549975 -1.97082 -3.12951
upperneck 2.60993 -2.63248 0.674486
head 0.75845 -1.33718 0.708682
rclavicle 1.19271e-014 7.15625e-015
rhumerus 37.1271 -2.65648 -32.1043
rradius 84.4359
rwrist -6.88036
rhand -1.06016 9.99734
rfingers 7.12502
rthumb 24.5745 -18.4454
lclavicle 1.19271e-014 7.15625e-015
lhumerus 47.4852 17.4653 25.2897
lradius 82.3289
lwrist 9.84801
lhand -2.42256 26.4428
lfingers 7.12502
lthumb 23.268 55.057
rfemur -20.7023 -0.180855 14.4695
rtibia 35.5228
rfoot -16.8967 -14.8836
rtoes -12.9855
lfemur -18.5634 1.3445 -22.3476
ltibia 32.5646
lfoot -14.8141 11.6276
ltoes -17.7867
3195
root -0.258623 17.8292 -1.09817 3.55734 -3.69488 4.94678
lowerback 11.5779 2.93325 0.803528
upperback 5.9875 3.92827 -1.18344
thorax -0.0882789 1.99684 -2.11929
lowerneck 0.597289 -1.77158 -2.99108
upperneck 2.56149 -2.3677 0.600307
head 0.727124 -1.20402 0.664707
rclavicle -3.67752e-014 1.03368e-014
rhumerus 37.2213 -2.56673 -31.9297
rradius 84.8869
rwrist -6.88265
rhand -1.33145 9.70814
rfingers 7.12502
rthumb 24.3145 -18.7697
lclavicle -3.67752e-014 1.03368e-014
lhumerus 47.4164 17.2965 25.5156
lradius 82.1784
lwrist 9.65426
lhand -2.31241 26.484
lfingers 7.12502
lthumb 23.3737 55.0847
rfemur -20.922 -0.0167379 14.5027
rtibia 35.6973
rfoot -16.9082 -14.6885
rtoes -13.141
lfemur -18.5953 1.47767 -22.3691
ltibia 32.6278
lfoot -15.1971 11.9857
ltoes -17.7793
3196
root -0.235998 17.8188 -1.10014 3.53 -4.09669 4.93702
lowerback 11.676 2.85589 0.614845
upperback 5.90273 3.80544 -1.17069
thorax -0.248659 1.92855 -1.99607
lowerneck 0.54533 -1.56505 -2.82834
upperneck 2.58823 -2.08827 0.45528
head 0.73462 -1.06436 0.593878
rclavicle -3.45885e-014 5.56597e-015
rhumerus 37.3811 -2.47321 -31.8185
rradius 85.3182
rwrist -6.7933
rhand -1.24965 9.5244
rfingers 7.12502
rthumb 24.3929 -18.9429
lclavicle -3.45885e-014 5.56597e-015
lhumerus 47.4105 17.1797 25.8066
lradius 82.0292
lwrist 9.55834
lhand -2.06989 26.4696
lfingers 7.12502
lthumb 23.6064 55.0406
rfemur -21.1238 0.106454 14.4226
rtibia 35.9405
rfoot -17.0216 -14.4404
rtoes -13.1566
lfemur -18.576 1.68746 -22.4999
ltibia 32.6973
lfoot -15.4486 12.3535
ltoes -18.0341
3197
root -0.215224 17.8058 -1.10421 3.49536 -4.44079 4.86577
lowerback 11.7835 2.77609 0.494136
upperback 5.85083 3.6864 -1.13662
thorax -0.375739 1.86414 -1.88788
lowerneck 0.38175 -1.39028 -2.69969
upperneck 2.71732 -1.84739 0.317778
head 0.794377 -0.945022 0.53027
rclavicle 8.74653e-015 3.18055e-015
rhumerus 37.5065 -2.49826 -31.6372
rradius 85.7375
rwrist -6.94492
rhand -1.16968 9.42597
rfingers 7.12502
rthumb 24.4696 -19.031
lclavicle 8.74653e-015 3.18055e-015
lhumerus 47.4167 17.0858 26.0979
lradius 81.9343
lwrist 9.40288
lhand -1.71597 26.5228
lfingers 7.12502
lthumb 23.9458 55.0495
rfemur -21.3256 0.219032 14.4193
rtibia 36.219
rfoot -17.0953 -14.2194
rtoes -13.0935
lfemur -18.5691 1.84458 -22.5535
ltibia 32.7673
lfoot -15.7081 12.688
ltoes -17.7818
3198
root -0.1946 17.7895 -1.10982 3.45214 -4.74375 4.83768
lowerback 11.8324 2.70329 0.348241
upperback 5.84131 3.57425 -1.12048
thorax -0.426312 1.80406 -1.77981
lowerneck 0.289257 -1.22139 -2.6106
upperneck 2.76635 -1.61899 0.273834
head 0.819962 -0.830956 0.502914
rclavicle -8.15017e-015 1.35174e-014
rhumerus 37.6105 -2.63953 -31.5005
rradius 86.126
rwrist -7.12744
rhand -1.1523 9.33361
rfingers 7.12502
rthumb 24.4862 -19.1211
lclavicle -8.15017e-015 1.35174e-014
lhumerus 47.4988 16.9622 26.3244
lradius 81.7357
lwrist 9.1482
lhand -1.73459 26.5159
lfingers 7.12502
lthumb 23.9279 55.045
rfemur -21.5563 0.283265 14.3783
rtibia 36.5382
rfoot -17.152 -14.0523
rtoes -13.1149
lfemur -18.5505 1.97029 -22.6414
ltibia 32.838
lfoot -16.0746 12.9554
ltoes -17.3642
